<?xml version="1.0" encoding="utf-8"?>
<!-- Generator: Adobe Illustrator 27.9.0, SVG Export Plug-In . SVG Version: 6.00 Build 0)  -->
<svg version="1.1" id="Layer_1" xmlns="http://www.w3.org/2000/svg" xmlns:xlink="http://www.w3.org/1999/xlink" x="0px" y="0px"
	 viewBox="0 0 485.2 462.7" style="enable-background:new 0 0 485.2 462.7;" xml:space="preserve">
<style type="text/css">
	.st0{fill:#231F20;}
</style>
<g>
	<path class="st0" d="M281.3,65.2l0,104.1l98.8-32.2l23.6,73l-99.8,32.2l61.2,84.8l-61.2,45.1l-61.2-84.8l-61.2,84.8l-61.2-45.1
		l61.2-84.8l-99.8-32.2l23.6-73l98.8,32.2V65.2H281.3 M345.3,1.2h-64H204h-64v64v15.9l-14.9-4.9l-61-19.9l-19.7,61l-23.6,73L1,251.3
		l61,19.7l16.1,5.2l-9.7,13.5l-37.1,51.4l51,37.6l61.2,45.1l52,38.3l37.8-52.4l9.3-12.9l9.3,12.9l37.8,52.4l52-38.3l61.2-45.1
		l51-37.6l-37.1-51.4l-9.7-13.5l16.1-5.2l61-19.7l-19.7-60.9l-23.6-73l-19.7-61l-61,19.9l-14.9,4.9l0-15.9L345.3,1.2L345.3,1.2z"/>
</g>
</svg>
