<?xml version="1.0" standalone="no"?>
<!DOCTYPE svg PUBLIC "-//W3C//DTD SVG 20010904//EN"
 "http://www.w3.org/TR/2001/REC-SVG-20010904/DTD/svg10.dtd">
<svg version="1.0" xmlns="http://www.w3.org/2000/svg"
 width="500.000000pt" height="500.000000pt" viewBox="0 0 500.000000 500.000000"
 preserveAspectRatio="xMidYMid meet">
<metadata>
Created by potrace 1.14, written by Peter Selinger 2001-2017
</metadata>
<g transform="translate(0.000000,500.000000) scale(0.100000,-0.100000)"
fill="#000000" stroke="none">
<path d="M1450 4853 c-1 -16 -1 -200 0 -409 l0 -382 -30 2 c-17 0 -30 5 -30
10 0 5 -3 6 -6 3 -4 -3 -14 -2 -24 3 -9 5 -28 11 -41 14 -21 4 -456 146 -499
163 -8 3 -19 7 -25 9 -5 2 -37 12 -70 23 l-60 19 -13 -29 c-7 -17 -10 -34 -7
-39 3 -4 2 -10 -2 -12 -5 -1 -21 -41 -36 -88 -38 -112 -38 -114 -39 -120 0 -3
-11 -34 -25 -70 -13 -36 -27 -75 -29 -86 -2 -12 -11 -38 -19 -58 -8 -20 -12
-36 -9 -36 4 0 2 -6 -3 -12 -7 -10 -39 -100 -48 -138 -1 -3 -4 -12 -8 -20 -9
-25 -39 -120 -41 -133 -1 -7 -4 -16 -7 -22 -4 -5 -30 -84 -59 -175 -29 -91
-66 -205 -82 -255 -17 -49 -31 -97 -33 -105 -2 -8 -4 -15 -5 -15 -6 0 -196
-592 -191 -597 7 -7 719 -249 739 -250 6 -1 12 -5 12 -10 0 -5 4 -6 10 -3 16
10 12 -5 -12 -38 -24 -35 -26 -37 -61 -82 -22 -29 -114 -157 -173 -241 -16
-23 -73 -103 -127 -179 -110 -153 -107 -133 -22 -192 22 -16 42 -31 43 -35 2
-5 10 -8 18 -8 8 0 14 -4 14 -8 0 -4 13 -16 30 -25 16 -10 35 -23 43 -30 7 -7
20 -16 29 -22 42 -27 331 -235 528 -381 47 -35 96 -71 110 -81 93 -68 348
-256 363 -268 9 -8 19 -15 22 -15 3 0 13 -7 22 -15 27 -22 262 -188 285 -202
12 -6 23 -15 27 -20 3 -4 13 -12 22 -18 10 -5 30 -20 47 -32 36 -27 32 -31
142 122 43 61 83 115 88 120 4 6 10 15 12 20 2 6 8 15 14 21 6 6 19 22 28 35
10 13 40 55 68 92 27 37 50 71 50 74 0 3 10 14 22 24 11 11 18 19 14 19 -4 0
2 10 14 22 11 12 30 37 43 55 22 33 37 42 37 22 0 -6 6 -16 13 -23 17 -17 46
-56 122 -161 35 -49 68 -94 73 -100 4 -5 23 -32 42 -60 19 -27 37 -52 40 -55
3 -3 17 -21 30 -40 13 -19 27 -37 30 -40 3 -3 30 -39 59 -80 30 -41 57 -79 62
-84 4 -5 22 3 41 18 18 14 38 30 43 34 6 5 24 17 40 28 17 10 35 22 40 27 6 4
55 40 110 79 55 39 103 76 107 82 4 6 8 7 8 2 0 -4 20 8 44 28 24 20 49 36 54
36 6 0 12 3 14 8 2 6 95 76 193 146 11 8 92 68 180 133 327 242 376 278 393
288 9 6 19 12 22 15 3 3 100 74 217 157 l212 151 -22 30 c-12 17 -29 40 -37
52 -32 46 -161 226 -174 240 -7 9 -15 24 -19 33 -3 9 -11 17 -17 17 -5 0 -10
5 -10 10 0 6 -32 54 -71 108 -39 53 -78 108 -87 121 -9 13 -25 32 -35 43 -17
18 -17 19 0 24 10 3 27 10 38 15 11 5 175 60 365 124 190 63 350 117 356 119
8 3 -10 70 -52 198 -36 106 -69 202 -73 213 -16 36 -111 340 -111 353 0 6 -4
12 -8 12 -4 0 -9 12 -10 26 -1 14 -5 31 -9 37 -4 7 -8 17 -9 22 -1 6 -16 53
-34 105 -17 52 -33 100 -34 105 -2 6 -6 17 -9 25 -8 22 -31 93 -33 105 -4 24
-198 601 -203 605 -3 3 -6 10 -7 15 -1 18 -15 69 -31 110 -9 22 -17 49 -18 60
-3 29 -3 29 -250 -55 -99 -34 -187 -63 -195 -65 -8 -2 -76 -24 -151 -48 -75
-25 -150 -48 -168 -52 l-31 -7 0 411 0 411 -1050 0 -1050 0 0 -27z m1335 -633
l111 0 -1 -526 c0 -289 3 -531 7 -537 5 -8 13 -8 30 2 13 6 30 13 38 14 8 1
29 7 45 13 47 18 133 45 147 48 7 2 27 9 43 15 17 7 37 14 45 16 8 2 44 13 80
25 36 12 72 23 80 25 8 2 42 13 75 25 33 12 78 26 99 31 22 5 44 13 50 17 6 4
14 7 19 8 4 1 8 2 10 4 1 1 10 3 20 6 30 7 41 11 59 18 9 4 25 9 35 11 10 2
19 4 21 5 1 2 5 3 10 5 4 1 14 4 22 7 51 20 80 26 85 18 5 -8 37 -106 39 -120
1 -3 4 -9 7 -15 5 -9 17 -48 24 -80 2 -9 49 -148 63 -185 3 -8 6 -21 8 -28 2
-13 19 -62 60 -184 13 -38 21 -68 19 -68 -3 0 1 -10 9 -23 8 -12 12 -27 8 -32
-7 -11 -162 -62 -174 -57 -5 1 -8 -2 -8 -8 0 -5 -6 -10 -12 -10 -7 0 -76 -21
-153 -46 -77 -25 -148 -47 -157 -49 -9 -2 -56 -17 -105 -33 -48 -17 -160 -53
-248 -82 -88 -28 -161 -53 -163 -55 -2 -2 3 -11 12 -22 41 -50 86 -114 86
-122 0 -5 4 -11 8 -13 4 -1 23 -25 42 -53 19 -27 37 -52 41 -55 3 -3 21 -27
40 -55 18 -27 38 -54 42 -60 13 -16 190 -261 207 -285 8 -12 45 -63 82 -113
59 -82 64 -93 50 -105 -10 -7 -51 -37 -92 -68 -41 -30 -82 -61 -90 -67 -8 -7
-31 -23 -50 -37 -19 -13 -39 -28 -45 -32 -5 -5 -53 -40 -105 -79 -52 -38 -103
-76 -113 -84 -9 -8 -19 -15 -22 -15 -3 0 -26 -16 -51 -35 l-46 -35 -58 82
c-33 46 -63 88 -67 93 -5 6 -24 32 -43 60 -19 27 -40 56 -47 63 -7 7 -20 26
-30 42 -9 17 -21 30 -25 30 -4 0 -8 5 -8 11 0 6 -17 33 -37 60 -21 26 -58 76
-83 111 -25 35 -48 68 -53 73 -4 6 -46 63 -92 128 l-84 118 -38 -49 c-21 -27
-45 -59 -53 -72 -8 -13 -24 -35 -36 -49 -11 -14 -36 -48 -54 -76 -19 -27 -36
-52 -40 -55 -3 -3 -28 -36 -55 -75 -27 -38 -51 -72 -54 -75 -3 -3 -10 -13 -16
-22 -11 -18 -160 -226 -185 -258 -8 -11 -26 -35 -40 -55 -14 -20 -34 -46 -45
-60 l-20 -24 -135 100 c-74 55 -146 109 -160 119 -14 10 -56 41 -95 69 -38 28
-75 54 -80 59 -6 5 -43 32 -83 61 -47 35 -70 57 -65 65 9 14 233 326 245 341
5 6 38 51 73 100 36 50 91 126 123 170 32 44 80 112 107 150 27 39 55 76 62
83 7 7 13 15 13 17 0 2 -53 20 -117 39 -65 20 -127 41 -138 46 -11 6 -29 12
-40 13 -11 2 -27 7 -35 10 -8 3 -60 20 -115 37 -55 17 -109 35 -120 40 -11 4
-45 15 -75 24 -30 9 -102 32 -160 52 -58 19 -109 36 -115 38 -117 32 -119 34
-101 78 9 19 12 38 9 42 -4 3 0 6 7 6 7 0 10 3 7 7 -4 3 -2 12 4 20 6 7 9 13
5 13 -3 0 0 16 8 35 9 20 15 38 15 41 -1 2 3 17 9 32 18 48 73 220 77 241 2
11 9 29 15 40 6 12 8 21 5 21 -3 0 -1 9 5 21 6 11 13 28 15 37 4 17 47 144 50
150 2 1 13 -1 26 -7 13 -5 76 -25 139 -45 63 -20 123 -41 132 -46 10 -6 28
-10 41 -10 13 0 27 -4 33 -8 7 -7 65 -27 109 -38 6 -1 42 -14 82 -27 39 -14
74 -23 77 -19 3 3 6 0 6 -6 0 -7 3 -11 8 -10 4 1 40 -8 79 -21 40 -12 75 -22
78 -22 3 1 19 -6 35 -14 16 -8 31 -15 32 -14 4 3 81 -21 105 -33 13 -6 25 -9
28 -6 3 3 6 244 6 536 l0 531 47 3 c26 2 155 2 287 1 132 -1 290 -2 350 -3z"/>
</g>
</svg>
