{
	"asset":{
		"generator":"Khronos glTF Blender I/O v4.0.44",
		"version":"2.0"
	},
	"scene":0,
	"scenes":[
		{
			"name":"Scene",
			"nodes":[
				0,
				1,
				2
			]
		}
	],
	"nodes":[
		{
			"mesh":0,
			"name":"Tape Sides",
			"scale":[
				2.2477478981018066,
				0.5999994277954102,
				2.2477478981018066
			]
		},
		{
			"mesh":1,
			"name":"Inner Tube",
			"scale":[
				1.7999982833862305,
				0.5999994277954102,
				1.7999982833862305
			]
		},
		{
			"mesh":2,
			"name":"Outer Torn Tape",
			"scale":[
				2.249997615814209,
				0.5999994277954102,
				2.249997615814209
			]
		}
	],
	"materials":[
		{
			"doubleSided":true,
			"name":"Side Tape",
			"pbrMetallicRoughness":{
				"baseColorTexture":{
					"index":0
				},
				"metallicFactor":0,
				"roughnessFactor":0.800000011920929
			}
		},
		{
			"alphaCutoff":0.5,
			"alphaMode":"MASK",
			"doubleSided":true,
			"name":"Outer Tape",
			"pbrMetallicRoughness":{
				"baseColorTexture":{
					"index":1
				},
				"metallicFactor":0,
				"roughnessFactor":0.699999988079071
			}
		},
		{
			"doubleSided":true,
			"name":"Cardboard Roll",
			"pbrMetallicRoughness":{
				"baseColorTexture":{
					"index":2
				},
				"metallicFactor":0,
				"roughnessFactor":0.699999988079071
			}
		},
		{
			"doubleSided":true,
			"name":"Inside Sticker",
			"pbrMetallicRoughness":{
				"baseColorTexture":{
					"index":3
				},
				"metallicFactor":0,
				"roughnessFactor":0.44999998807907104
			}
		}
	],
	"meshes":[
		{
			"name":"Cylinder",
			"primitives":[
				{
					"attributes":{
						"POSITION":0,
						"NORMAL":1,
						"TEXCOORD_0":2
					},
					"indices":3,
					"material":0
				},
				{
					"attributes":{
						"POSITION":4,
						"NORMAL":5,
						"TEXCOORD_0":6
					},
					"indices":7,
					"material":1
				}
			]
		},
		{
			"name":"Cylinder.001",
			"primitives":[
				{
					"attributes":{
						"POSITION":8,
						"NORMAL":9,
						"TEXCOORD_0":10
					},
					"indices":11,
					"material":2
				},
				{
					"attributes":{
						"POSITION":12,
						"NORMAL":13,
						"TEXCOORD_0":14
					},
					"indices":15,
					"material":3
				}
			]
		},
		{
			"name":"Cylinder.002",
			"primitives":[
				{
					"attributes":{
						"POSITION":16,
						"NORMAL":17,
						"TEXCOORD_0":18
					},
					"indices":19,
					"material":1
				}
			]
		}
	],
	"textures":[
		{
			"sampler":0,
			"source":0
		},
		{
			"sampler":0,
			"source":1
		},
		{
			"sampler":0,
			"source":2
		},
		{
			"sampler":0,
			"source":3
		}
	],
	"images":[
		{
			"mimeType":"image/png",
			"name":"side_tape_texture",
			"uri":"textures/side_tape_texture.png"
		},
		{
			"mimeType":"image/png",
			"name":"tape_texture",
			"uri":"textures/tape_texture.png"
		},
		{
			"mimeType":"image/png",
			"name":"cardboard_roll",
			"uri":"textures/cardboard_roll.png"
		},
		{
			"mimeType":"image/png",
			"name":"pt_roll_sticker",
			"uri":"textures/pt_roll_sticker.png"
		}
	],
	"accessors":[
		{
			"bufferView":0,
			"componentType":5126,
			"count":368,
			"max":[
				1,
				1,
				1
			],
			"min":[
				-1,
				-1,
				-1
			],
			"type":"VEC3"
		},
		{
			"bufferView":1,
			"componentType":5126,
			"count":368,
			"type":"VEC3"
		},
		{
			"bufferView":2,
			"componentType":5126,
			"count":368,
			"type":"VEC2"
		},
		{
			"bufferView":3,
			"componentType":5123,
			"count":738,
			"type":"SCALAR"
		},
		{
			"bufferView":4,
			"componentType":5126,
			"count":20,
			"max":[
				0.7071067690849304,
				1,
				1
			],
			"min":[
				-0.19509032368659973,
				-1,
				0.7071067690849304
			],
			"type":"VEC3"
		},
		{
			"bufferView":5,
			"componentType":5126,
			"count":20,
			"type":"VEC3"
		},
		{
			"bufferView":6,
			"componentType":5126,
			"count":20,
			"type":"VEC2"
		},
		{
			"bufferView":7,
			"componentType":5123,
			"count":30,
			"type":"SCALAR"
		},
		{
			"bufferView":8,
			"componentType":5126,
			"count":198,
			"max":[
				1,
				1,
				1
			],
			"min":[
				-1,
				-1,
				-1
			],
			"type":"VEC3"
		},
		{
			"bufferView":9,
			"componentType":5126,
			"count":198,
			"type":"VEC3"
		},
		{
			"bufferView":10,
			"componentType":5126,
			"count":198,
			"type":"VEC2"
		},
		{
			"bufferView":11,
			"componentType":5123,
			"count":576,
			"type":"SCALAR"
		},
		{
			"bufferView":12,
			"componentType":5126,
			"count":66,
			"max":[
				0.9376108050346375,
				1,
				0.9376108050346375
			],
			"min":[
				-0.9376108050346375,
				-1,
				-0.9376108050346375
			],
			"type":"VEC3"
		},
		{
			"bufferView":13,
			"componentType":5126,
			"count":66,
			"type":"VEC3"
		},
		{
			"bufferView":14,
			"componentType":5126,
			"count":66,
			"type":"VEC2"
		},
		{
			"bufferView":15,
			"componentType":5123,
			"count":192,
			"type":"SCALAR"
		},
		{
			"bufferView":16,
			"componentType":5126,
			"count":84,
			"max":[
				1,
				1,
				1
			],
			"min":[
				-1,
				-1,
				-1
			],
			"type":"VEC3"
		},
		{
			"bufferView":17,
			"componentType":5126,
			"count":84,
			"type":"VEC3"
		},
		{
			"bufferView":18,
			"componentType":5126,
			"count":84,
			"type":"VEC2"
		},
		{
			"bufferView":19,
			"componentType":5123,
			"count":243,
			"type":"SCALAR"
		}
	],
	"bufferViews":[
		{
			"buffer":0,
			"byteLength":4416,
			"byteOffset":0,
			"target":34962
		},
		{
			"buffer":0,
			"byteLength":4416,
			"byteOffset":4416,
			"target":34962
		},
		{
			"buffer":0,
			"byteLength":2944,
			"byteOffset":8832,
			"target":34962
		},
		{
			"buffer":0,
			"byteLength":1476,
			"byteOffset":11776,
			"target":34963
		},
		{
			"buffer":0,
			"byteLength":240,
			"byteOffset":13252,
			"target":34962
		},
		{
			"buffer":0,
			"byteLength":240,
			"byteOffset":13492,
			"target":34962
		},
		{
			"buffer":0,
			"byteLength":160,
			"byteOffset":13732,
			"target":34962
		},
		{
			"buffer":0,
			"byteLength":60,
			"byteOffset":13892,
			"target":34963
		},
		{
			"buffer":0,
			"byteLength":2376,
			"byteOffset":13952,
			"target":34962
		},
		{
			"buffer":0,
			"byteLength":2376,
			"byteOffset":16328,
			"target":34962
		},
		{
			"buffer":0,
			"byteLength":1584,
			"byteOffset":18704,
			"target":34962
		},
		{
			"buffer":0,
			"byteLength":1152,
			"byteOffset":20288,
			"target":34963
		},
		{
			"buffer":0,
			"byteLength":792,
			"byteOffset":21440,
			"target":34962
		},
		{
			"buffer":0,
			"byteLength":792,
			"byteOffset":22232,
			"target":34962
		},
		{
			"buffer":0,
			"byteLength":528,
			"byteOffset":23024,
			"target":34962
		},
		{
			"buffer":0,
			"byteLength":384,
			"byteOffset":23552,
			"target":34963
		},
		{
			"buffer":0,
			"byteLength":1008,
			"byteOffset":23936,
			"target":34962
		},
		{
			"buffer":0,
			"byteLength":1008,
			"byteOffset":24944,
			"target":34962
		},
		{
			"buffer":0,
			"byteLength":672,
			"byteOffset":25952,
			"target":34962
		},
		{
			"buffer":0,
			"byteLength":486,
			"byteOffset":26624,
			"target":34963
		}
	],
	"samplers":[
		{
			"magFilter":9729,
			"minFilter":9987
		}
	],
	"buffers":[
		{
			"byteLength":27112,
			"uri":"painter_stape.bin"
		}
	]
}
